# xmcd CD database file generated by freedbAccess_ocx
#
# Track frame offsets:
#       162
#       21607
#       38888
#       65693
#       79261
#       107642
#       123645
#       146003
#       163474
#       179073
#       201795
#       226908
#
# Disc length: 3231 seconds
#
# Revision: 0
# Processed by: cddbd v1.5.1PL0 Copyright (c) Steve Scherf et al.
# Submitted via: CDnGo 2.00
#
DISCID=b80c9d0c
DTITLE=Goldentone - honey coloured sky
DYEAR=2002
DGENRE=Alt. Country
TTITLE0=promises
TTITLE1=next to thee
TTITLE2=rebekah
TTITLE3=silver studded sky
TTITLE4=hands of mercy
TTITLE5=annalise
TTITLE6=heartbeat
TTITLE7=defenceless
TTITLE8=stand your ground
TTITLE9=regrets
TTITLE10=inner dark
TTITLE11=overdrive
EXTD=
EXTT0=
EXTT1=
EXTT2=
EXTT3=
EXTT4=
EXTT5=
EXTT6=
EXTT7=
EXTT8=
EXTT9=
EXTT10=
EXTT11=
PLAYORDER=
